<svg width="32" height="32" viewBox="0 0 32 32" fill="none" xmlns="http://www.w3.org/2000/svg">
<path fill-rule="evenodd" clip-rule="evenodd" d="M22.0772 19.7232L22.0765 19.7239C21.4181 20.3768 20.7666 21.0228 20.1271 21.6787L19.4112 20.9807L20.129 21.6767C19.9824 21.8279 19.7274 22.0496 19.351 22.1248C18.9529 22.2045 18.6163 22.0837 18.386 21.9553C18.2394 21.8755 18.0922 21.8031 17.9244 21.7206C17.8768 21.6972 17.8275 21.6729 17.7761 21.6474C17.554 21.5375 17.3022 21.4093 17.0545 21.2553L17.05 21.2525C15.0289 19.9812 13.3537 18.3578 11.8904 16.5629L11.8899 16.5623C11.153 15.6571 10.4672 14.6519 9.98113 13.4953C9.90305 13.3097 9.80827 13.0132 9.87061 12.6599C9.93427 12.2992 10.1315 12.0453 10.2954 11.8814L10.3014 11.8754L10.3076 11.8694C10.8621 11.3335 11.4044 10.7859 11.9575 10.2275C12.0503 10.1337 12.1435 10.0396 12.2371 9.94527L12.2379 9.94442C12.551 9.62937 12.6221 9.37869 12.6219 9.21364C12.6217 9.04812 12.5494 8.79489 12.2324 8.47593L12.2308 8.4743C11.9761 8.21685 11.7211 7.96183 11.4639 7.70463L11.4628 7.70357C11.2072 7.44796 10.9494 7.19018 10.6913 6.92932C10.5098 6.7478 10.3316 6.56836 10.1548 6.39036C9.80592 6.03898 9.46258 5.69324 9.11038 5.34829C8.82807 5.0735 8.58153 4.99941 8.40245 4.99967C8.22381 4.99992 7.97901 5.07429 7.6996 5.35012L7.69821 5.35149C7.4549 5.59073 7.20127 5.84679 6.94234 6.1082C6.53935 6.51506 6.12352 6.93487 5.7138 7.32444L5.71231 7.32586L5.71231 7.32586C5.28437 7.73107 5.06518 8.21572 5.01626 8.83711C4.92766 10.0013 5.209 11.1397 5.66257 12.3475L5.66387 12.3509C6.58748 14.8384 8.00045 17.0662 9.73988 19.1321L9.74025 19.1326C12.0777 21.9119 14.8616 24.1052 18.1186 25.6886C19.5858 26.4009 21.0288 26.9093 22.5595 26.993L22.5609 26.993C23.516 27.0466 24.2177 26.8146 24.7919 26.171L24.7928 26.17C25.185 25.7316 25.6341 25.2948 26.0508 24.8896C26.2523 24.6936 26.4462 24.505 26.6224 24.3272C26.9227 24.023 26.9993 23.7677 27 23.591C27.0007 23.4162 26.9281 23.1681 26.6357 22.8737C25.5886 21.8211 24.5357 20.7737 23.4806 19.7242C23.1974 19.4451 22.952 19.3715 22.7764 19.3715C22.601 19.3715 22.3573 19.4448 22.0772 19.7232ZM24.1845 19.0138C23.3171 18.1575 22.2342 18.1575 21.3724 19.0138C20.715 19.6657 20.0575 20.3176 19.4111 20.9806C19.2343 21.1629 19.0852 21.2016 18.8697 21.08C18.7011 20.9881 18.5282 20.9031 18.3554 20.8181C18.0922 20.6887 17.8293 20.5594 17.5824 20.406C15.6764 19.2072 14.0798 17.6658 12.6654 15.931C11.9638 15.0691 11.3395 14.1465 10.903 13.1079C10.8146 12.8979 10.8312 12.7598 11.0025 12.5885C11.5656 12.0443 12.1166 11.488 12.6693 10.9298C12.7619 10.8364 12.8545 10.7429 12.9472 10.6494C13.8477 9.74331 13.8477 8.68256 12.9417 7.77098C12.6848 7.51132 12.4279 7.25443 12.171 6.99753C11.9141 6.74063 11.6572 6.48372 11.4003 6.22406C11.2235 6.04726 11.0473 5.86985 10.8711 5.69244C10.5188 5.33764 10.1664 4.98283 9.80915 4.63294C8.94177 3.78765 7.85892 3.78765 6.99707 4.63846C6.73181 4.89929 6.47098 5.16278 6.21033 5.42609C5.81951 5.82088 5.42908 6.21528 5.02474 6.59974C4.40045 7.19088 4.08554 7.91462 4.01924 8.7599C3.91427 10.1356 4.25128 11.4339 4.7264 12.699C5.69876 15.3177 7.17938 17.6437 8.97492 19.7762C11.4003 22.6601 14.2952 24.9418 17.6819 26.5882C19.2067 27.3285 20.7868 27.8975 22.505 27.9915C23.6873 28.0578 24.7148 27.7594 25.538 26.8368C25.9084 26.4228 26.3098 26.0327 26.7109 25.643C26.92 25.4397 27.1291 25.2366 27.3336 25.0302C28.2175 24.1352 28.223 23.0524 27.3446 22.1684C26.2949 21.1132 25.2397 20.0635 24.1845 19.0138Z" fill="#FAA61A"/>
</svg>
